<svg width="168" height="58" viewBox="0 0 168 58" fill="none" xmlns="http://www.w3.org/2000/svg">
<path d="M2.0483 43.2023C1.6435 43.2023 1.35115 43.0449 1.17123 42.7301C0.991323 42.4152 0.901367 42.0779 0.901367 41.7181C0.946345 40.9535 1.12626 40.5262 1.4411 40.4362C1.75595 40.3463 2.13826 40.3013 2.58803 40.3013C4.02732 40.3013 5.03932 40.0539 5.62403 39.5591C6.20874 39.0194 6.56857 38.3672 6.7035 37.6026C6.88341 36.793 6.97337 35.9609 6.97337 35.1063V8.32207C6.97337 7.46749 6.88341 6.65789 6.7035 5.89327C6.56857 5.08367 6.20874 4.43149 5.62403 3.93674C5.03932 3.39701 4.02732 3.12714 2.58803 3.12714C2.13826 3.12714 1.75595 3.08216 1.4411 2.9922C1.12626 2.90225 0.946345 2.47496 0.901367 1.71034C0.901367 1.35052 0.991323 1.01318 1.17123 0.698339C1.35115 0.383496 1.6435 0.226074 2.0483 0.226074C3.53257 0.271051 4.90439 0.316029 6.16377 0.361006C7.42315 0.405983 8.7275 0.428472 10.0768 0.428472H31.2614C31.7561 0.428472 32.1609 0.540916 32.4758 0.765805C32.8356 0.990693 33.0155 1.41798 33.0155 2.04767L33.2179 11.493C33.2179 11.9428 32.993 12.2801 32.5432 12.505C32.1384 12.7299 31.7561 12.8423 31.3963 12.8423C30.9015 12.8423 30.4518 12.7524 30.047 12.5725C29.6422 12.3476 29.3948 12.0327 29.3048 11.6279C28.99 9.60394 28.6077 7.98474 28.1579 6.77034C27.7531 5.51096 27.1234 4.61141 26.2688 4.07167C25.4592 3.48696 24.2673 3.17212 22.6931 3.12714H13.6526V20.2637H25.864C26.2239 20.3087 26.4712 20.4886 26.6062 20.8034C26.7861 21.1183 26.876 21.4556 26.876 21.8154C26.876 22.1303 26.7861 22.4451 26.6062 22.7599C26.4712 23.0298 26.2239 23.1647 25.864 23.1647H13.6526V35.9159C13.6975 36.5007 13.7875 37.1528 13.9224 37.8725C14.0574 38.5471 14.4397 39.1319 15.0694 39.6266C15.744 40.1214 16.846 40.3463 18.3752 40.3013H24.5822C26.1564 40.2563 27.3483 40.0089 28.1579 39.5591C29.0125 39.0644 29.6871 38.2548 30.1819 37.1303C30.6767 36.0059 31.2164 34.4542 31.8011 32.4751C31.981 32.0254 32.2734 31.733 32.6782 31.5981C33.1279 31.4631 33.6002 31.4407 34.095 31.5306C34.4548 31.5756 34.8146 31.733 35.1744 32.0029C35.5792 32.2727 35.7591 32.6326 35.7142 33.0823L34.3648 41.5831C34.2299 42.2128 34.005 42.6176 33.6902 42.7975C33.4203 42.9325 32.993 42.9999 32.4083 42.9999H10.1443C8.79497 42.9999 7.46812 42.9999 6.16377 42.9999C4.90439 43.0449 3.53257 43.1124 2.0483 43.2023Z" fill="white"/>
<path d="M37.3165 57.033C37.0017 57.033 36.7318 56.8756 36.5069 56.5607C36.327 56.2909 36.237 55.9985 36.237 55.6837C36.282 55.009 36.4394 54.6267 36.7093 54.5367C37.0241 54.4918 37.384 54.4693 37.7888 54.4693C39.0032 54.4693 39.8353 54.2444 40.285 53.7946C40.7798 53.3898 41.0721 52.8276 41.1621 52.1079C41.2521 51.3883 41.297 50.6462 41.297 49.8815V20.601C41.297 19.7914 41.2521 19.0493 41.1621 18.3746C41.1171 17.655 40.8697 17.0927 40.42 16.6879C39.9702 16.2382 39.1156 16.0133 37.8562 16.0133C37.4514 16.0133 37.0691 15.9683 36.7093 15.8783C36.3945 15.7434 36.237 15.3386 36.237 14.6639C36.237 13.9893 36.5969 13.5845 37.3165 13.4495C39.3855 13.1347 40.9597 12.8199 42.0392 12.505C43.1636 12.1902 43.9957 11.9203 44.5354 11.6954C45.1201 11.4705 45.6374 11.3356 46.0872 11.2906C46.447 11.2456 46.7393 11.3131 46.9642 11.493C47.2341 11.6729 47.369 12.0327 47.369 12.5725V15.8109H47.5714C48.8308 14.6415 50.3376 13.6519 52.0917 12.8423C53.8458 12.0327 55.5325 11.6279 57.1517 11.6279C59.8953 11.6279 62.3241 12.3026 64.4381 13.6519C66.5521 15.0013 68.2162 16.8903 69.4306 19.3191C70.645 21.703 71.2522 24.4916 71.2522 27.685C71.2522 30.9234 70.5101 33.757 69.0258 36.1858C67.5416 38.6146 65.63 40.5037 63.2912 41.853C60.9523 43.1574 58.4561 43.8095 55.8024 43.8095C53.7784 43.8095 52.1367 43.5847 50.8773 43.1349C49.6629 42.7301 48.6059 42.2578 47.7064 41.7181H47.4365V49.8815C47.4365 50.6462 47.4815 51.3883 47.5714 52.1079C47.6614 52.8276 47.9537 53.3898 48.4485 53.7946C48.9433 54.2444 49.7753 54.4693 50.9448 54.4693C51.3496 54.4693 51.6869 54.4918 51.9568 54.5367C52.2716 54.6267 52.4515 55.009 52.4965 55.6837C52.4965 55.9985 52.4065 56.2909 52.2266 56.5607C52.0467 56.8756 51.7769 57.033 51.417 57.033C50.1127 56.9431 48.8983 56.8756 47.7738 56.8306C46.6944 56.8306 45.5474 56.8306 44.333 56.8306C43.1186 56.8306 41.9717 56.8306 40.8922 56.8306C39.8128 56.8756 38.6209 56.9431 37.3165 57.033ZM55.2626 41.5157C57.0168 41.5157 58.4785 41.0884 59.648 40.2338C60.8174 39.3343 61.7394 38.2098 62.4141 36.8605C63.1337 35.4662 63.6285 33.9819 63.8984 32.4077C64.2132 30.7885 64.3706 29.2817 64.3706 27.8874C64.3706 25.7735 64.0333 23.7495 63.3586 21.8154C62.7289 19.8364 61.6945 18.2172 60.2552 16.9578C58.8609 15.6535 57.0168 15.0013 54.7229 15.0013C53.0137 15.0013 51.5969 15.3611 50.4725 16.0807C49.3481 16.7554 48.3361 17.565 47.4365 18.5095V36.5906C47.9313 37.76 48.8308 38.8845 50.1352 39.9639C51.4845 40.9984 53.1937 41.5157 55.2626 41.5157Z" fill="white"/>
<path d="M86.9034 43.8095C83.845 43.8095 81.4162 42.8875 79.617 41.0434C77.8179 39.1993 76.9184 36.7705 76.9184 33.757V21.2757C76.9184 20.4661 76.8734 19.7239 76.7834 19.0493C76.7385 18.3296 76.4911 17.7674 76.0413 17.3626C75.5915 16.9128 74.737 16.6879 73.4776 16.6879C73.0728 16.6879 72.6905 16.643 72.3306 16.553C72.0158 16.4181 71.8584 16.0133 71.8584 15.3386C71.8584 14.6639 72.2182 14.2591 72.9378 14.1242C75.0068 13.8094 76.581 13.4945 77.6605 13.1797C78.785 12.8648 79.6395 12.595 80.2242 12.3701C80.809 12.1452 81.3262 12.0103 81.776 11.9653C82.1358 11.9203 82.4282 11.9878 82.653 12.1677C82.9229 12.3476 83.0578 12.7074 83.0578 13.2471V33.6895C83.0578 35.1738 83.3727 36.3882 84.0024 37.3327C84.677 38.2773 85.5091 38.9744 86.4986 39.4242C87.4882 39.874 88.5002 40.0989 89.5346 40.0989C91.1089 40.0989 92.4807 39.829 93.6501 39.2893C94.8195 38.7046 95.7641 38.0524 96.4837 37.3327C97.2034 36.5681 97.6756 35.9384 97.9005 35.4437V21.2757C97.9005 20.4661 97.8555 19.7239 97.7656 19.0493C97.7206 18.3296 97.4732 17.7674 97.0234 17.3626C96.5737 16.9128 95.7191 16.6879 94.4597 16.6879C94.0549 16.6879 93.6726 16.643 93.3128 16.553C92.9979 16.4181 92.8405 16.0133 92.8405 15.3386C92.8405 14.6639 93.2003 14.2591 93.92 14.1242C95.989 13.8094 97.5632 13.4945 98.6426 13.1797C99.7671 12.8648 100.622 12.595 101.206 12.3701C101.791 12.1452 102.308 12.0103 102.758 11.9653C103.118 11.9203 103.41 11.9878 103.635 12.1677C103.905 12.3476 104.04 12.7074 104.04 13.2471V36.5906C104.04 39.2443 105.817 40.5711 109.37 40.5711C109.865 40.5711 110.179 40.7061 110.314 40.9759C110.449 41.2458 110.517 41.5382 110.517 41.853C110.517 42.4827 110.134 42.865 109.37 42.9999L98.5077 43.7421C98.1929 43.7421 98.013 43.6071 97.968 43.3373C97.923 43.0674 97.9005 42.7526 97.9005 42.3927V38.6146H97.7656C96.911 39.4242 95.989 40.2338 94.9994 41.0434C94.0549 41.853 92.9305 42.5052 91.6261 42.9999C90.3667 43.5397 88.7925 43.8095 86.9034 43.8095Z" fill="white"/>
<path d="M110.902 43.2023C110.587 43.2023 110.317 43.0674 110.092 42.7975C109.912 42.4827 109.822 42.1679 109.822 41.853C109.867 41.1783 110.024 40.8185 110.294 40.7735C110.609 40.6836 110.969 40.6386 111.374 40.6386C112.633 40.6386 113.488 40.4362 113.938 40.0314C114.432 39.5816 114.702 38.9969 114.747 38.2773C114.837 37.5576 114.882 36.8155 114.882 36.0509V20.601C114.882 19.7914 114.837 19.0493 114.747 18.3746C114.702 17.655 114.455 17.0927 114.005 16.6879C113.555 16.2382 112.701 16.0133 111.441 16.0133C111.036 16.0133 110.654 15.9683 110.294 15.8783C109.98 15.7434 109.822 15.3386 109.822 14.6639C109.822 13.9893 110.182 13.5845 110.902 13.4495C112.971 13.1347 114.545 12.8199 115.624 12.505C116.749 12.1902 117.581 11.9203 118.12 11.6954C118.705 11.4705 119.222 11.3356 119.672 11.2906C120.032 11.2456 120.324 11.3131 120.549 11.493C120.819 11.6729 120.954 12.0327 120.954 12.5725V16.8229H121.156C122.056 15.9683 122.933 15.1587 123.788 14.3941C124.642 13.5845 125.677 12.9323 126.891 12.4375C128.106 11.8978 129.657 11.6279 131.546 11.6279C133.75 11.6279 135.639 12.1002 137.214 13.0447C138.788 13.9443 139.935 15.2037 140.654 16.8229H140.789C141.689 15.9683 142.633 15.1587 143.623 14.3941C144.612 13.5845 145.782 12.9323 147.131 12.4375C148.48 11.8978 150.1 11.6279 151.989 11.6279C155.047 11.6279 157.476 12.55 159.275 14.3941C161.074 16.2382 161.974 18.667 161.974 21.6805V36.0509C161.974 36.8155 161.996 37.5576 162.041 38.2773C162.131 38.9969 162.401 39.5816 162.851 40.0314C163.346 40.4362 164.223 40.6386 165.482 40.6386C165.887 40.6386 166.224 40.6836 166.494 40.7735C166.809 40.8185 166.989 41.1783 167.034 41.853C167.034 42.1679 166.944 42.4827 166.764 42.7975C166.584 43.0674 166.314 43.2023 165.954 43.2023C164.65 43.1124 163.436 43.0449 162.311 42.9999C161.232 42.9999 160.085 42.9999 158.87 42.9999C157.656 42.9999 156.509 42.9999 155.43 42.9999C154.35 43.0449 153.158 43.1124 151.854 43.2023C151.494 43.2023 151.224 43.0674 151.044 42.7975C150.864 42.4827 150.774 42.1679 150.774 41.853C150.819 41.1783 150.977 40.8185 151.247 40.7735C151.561 40.6836 151.921 40.6386 152.326 40.6386C153.585 40.6386 154.44 40.4362 154.89 40.0314C155.385 39.5816 155.654 38.9969 155.699 38.2773C155.789 37.5576 155.834 36.8155 155.834 36.0509V21.7479C155.834 20.2637 155.497 19.0493 154.822 18.1047C154.193 17.1602 153.383 16.4631 152.394 16.0133C151.404 15.5635 150.392 15.3386 149.358 15.3386C147.828 15.3386 146.524 15.631 145.444 16.2157C144.365 16.7554 143.51 17.3851 142.881 18.1047C142.251 18.8244 141.801 19.4541 141.531 19.9938V36.0509C141.531 36.8155 141.531 37.5576 141.531 38.2773C141.576 38.9969 141.801 39.5816 142.206 40.0314C142.656 40.4362 143.51 40.6386 144.77 40.6386C145.22 40.6386 145.579 40.6836 145.849 40.7735C146.119 40.8185 146.277 41.1783 146.322 41.853C146.322 42.1679 146.232 42.4827 146.052 42.7975C145.872 43.0674 145.602 43.2023 145.242 43.2023C143.938 43.1124 142.768 43.0449 141.734 42.9999C140.699 42.9999 139.575 42.9999 138.36 42.9999C137.191 42.9999 136.089 42.9999 135.055 42.9999C134.065 43.0449 132.918 43.1124 131.614 43.2023C131.254 43.2023 130.984 43.0674 130.804 42.7975C130.624 42.4827 130.534 42.1679 130.534 41.853C130.579 41.1783 130.737 40.8185 131.007 40.7735C131.276 40.6836 131.636 40.6386 132.086 40.6386C133.345 40.6386 134.178 40.4362 134.582 40.0314C135.032 39.5816 135.257 38.9969 135.257 38.2773C135.302 37.5576 135.324 36.8155 135.324 36.0509V21.7479C135.324 19.4991 134.65 17.8799 133.3 16.8903C131.951 15.8558 130.489 15.3386 128.915 15.3386C127.341 15.3386 126.014 15.631 124.935 16.2157C123.855 16.7554 123.001 17.3851 122.371 18.1047C121.741 18.8244 121.291 19.4541 121.022 19.9938V36.0509C121.022 36.8155 121.044 37.5576 121.089 38.2773C121.179 38.9969 121.449 39.5816 121.899 40.0314C122.393 40.4362 123.27 40.6386 124.53 40.6386C124.935 40.6386 125.272 40.6836 125.542 40.7735C125.857 40.8185 126.037 41.1783 126.082 41.853C126.082 42.1679 125.992 42.4827 125.812 42.7975C125.632 43.0674 125.362 43.2023 125.002 43.2023C123.698 43.1124 122.483 43.0449 121.359 42.9999C120.279 42.9999 119.132 42.9999 117.918 42.9999C116.704 42.9999 115.557 42.9999 114.477 42.9999C113.398 43.0449 112.206 43.1124 110.902 43.2023Z" fill="white"/>
</svg>
